<svg id="Group_1" data-name="Group 1" xmlns="http://www.w3.org/2000/svg" width="35.7" height="20.6" viewBox="0 0 35.7 20.6">
  <g id="Group">
    <path id="Path" d="M34.2,3H1.5A1.538,1.538,0,0,1,0,1.5,1.538,1.538,0,0,1,1.5,0H34.2a1.538,1.538,0,0,1,1.5,1.5A1.473,1.473,0,0,1,34.2,3Z" fill="#fff"/>
    <path id="Path-2" data-name="Path" d="M34.2,3H1.5A1.538,1.538,0,0,1,0,1.5,1.538,1.538,0,0,1,1.5,0H34.2a1.538,1.538,0,0,1,1.5,1.5A1.473,1.473,0,0,1,34.2,3Z" transform="translate(0 8.8)" fill="#fff"/>
    <path id="Path-3" data-name="Path" d="M34.2,3H1.5A1.538,1.538,0,0,1,0,1.5,1.538,1.538,0,0,1,1.5,0H34.2a1.538,1.538,0,0,1,1.5,1.5A1.473,1.473,0,0,1,34.2,3Z" transform="translate(0 17.6)" fill="#fff"/>
  </g>
</svg>
